<?xml version="1.0" encoding="UTF-8" standalone="no"?>
<svg width="363px" height="80px" viewBox="0 0 363 80" version="1.1" xmlns="http://www.w3.org/2000/svg" xmlns:xlink="http://www.w3.org/1999/xlink">
    <!-- Generator: Sketch 40 (33762) - http://www.bohemiancoding.com/sketch -->
    <title>Slice 1</title>
    <desc>Created with Sketch.</desc>
    <defs></defs>
    <g id="Page-1" stroke="none" stroke-width="1" fill="none" fill-rule="evenodd">
        <g id="ace-white-logo" fill="#000000">
            <g id="Page-1">
                <g id="ace-white-logo">
                    <path d="M258.5343,42.8248 L261.5783,35.9548 L264.6213,42.8248 L258.5343,42.8248 L258.5343,42.8248 Z M261.9943,19.3708 C261.9113,19.1768 261.7453,19.0848 261.5783,19.1068 C261.4113,19.0848 261.2443,19.1768 261.1613,19.3708 L244.7983,53.1248 L253.9693,53.1248 L255.7873,49.1078 L267.3683,49.1078 L269.1873,53.1248 L278.3573,53.1248 L261.9943,19.3708 L261.9943,19.3708 Z M339.0103,19.9258 L362.2983,19.9258 L362.2983,27.3958 L347.8953,27.3958 L347.8953,32.8948 L359.9053,32.8948 L359.9053,39.9748 L347.8953,39.9748 L347.8953,45.6548 L362.9813,45.6548 L362.9813,53.1248 L339.0103,53.1248 L339.0103,19.9258 L339.0103,19.9258 Z M311.9153,19.9258 L320.8003,19.9258 L320.8003,45.6548 L334.9103,45.6548 L334.9103,53.1248 L311.9153,53.1248 L311.9153,19.9258 L311.9153,19.9258 Z M294.7313,46.0938 C298.1483,46.0938 298.5793,43.9968 298.5793,42.3348 C298.5793,40.8518 298.0953,39.1108 294.7313,39.1108 L289.3613,39.1108 L289.3613,46.0938 L294.7313,46.0938 L294.7313,46.0938 Z M293.6573,32.9608 C296.4373,32.9608 297.0583,31.6478 297.0583,29.6408 C297.0583,27.6408 295.7073,26.9558 293.7553,26.9558 L289.3613,26.9558 L289.3613,32.9608 L293.6573,32.9608 L293.6573,32.9608 Z M280.7683,19.9258 L294.3403,19.9258 C300.9313,19.9258 305.8343,22.9528 305.8343,28.0298 C305.8343,33.0998 303.6293,34.6998 301.4813,35.7248 C305.0943,36.7508 307.2853,39.2488 307.2853,43.1648 C307.2853,49.5118 303.1773,53.1248 294.9263,53.1248 L280.7683,53.1248 L280.7683,19.9258 L280.7683,19.9258 Z M218.5223,19.9258 L241.8103,19.9258 L241.8103,27.3958 L227.4083,27.3958 L227.4083,32.8068 L239.4183,32.8068 L239.4183,39.8858 L227.4083,39.8858 L227.4083,45.6548 L242.4943,45.6548 L242.4943,53.1248 L218.5223,53.1248 L218.5223,19.9258 L218.5223,19.9258 Z M200.5093,53.3418 C191.1843,53.3418 183.2263,46.3108 183.2263,36.3028 C183.2263,26.2938 191.1353,19.3128 200.0203,19.3128 C207.1973,19.3128 211.5913,22.3398 214.3743,26.4408 L207.6853,30.9808 C206.4163,29.0288 204.3653,27.0268 200.1673,27.0268 C195.2853,27.0268 192.3063,31.0788 192.3063,36.3028 C192.3063,41.5268 195.3823,45.6278 200.4593,45.6278 C204.7563,45.6278 206.8553,43.6748 208.2713,41.0378 L215.1063,45.4318 C211.8353,50.9498 207.2463,53.3418 200.5093,53.3418 L200.5093,53.3418 L200.5093,53.3418 Z M165.0313,42.8248 L168.0743,35.9548 L171.1183,42.8248 L165.0313,42.8248 L165.0313,42.8248 Z M168.4913,19.3708 C168.4083,19.1768 168.2413,19.0848 168.0743,19.1068 C167.9073,19.0848 167.7413,19.1768 167.6583,19.3708 L151.2953,53.1248 L160.4653,53.1248 L162.2843,49.1078 L173.8653,49.1078 L175.6843,53.1248 L184.8543,53.1248 L168.4913,19.3708 L168.4913,19.3708 Z" id="Fill-1"></path>
                    <path d="M48.7606,35.8391 L4.5156,35.8391 C6.5266,41.0221 9.0966,45.9261 12.1476,50.4811 L41.6616,50.4811 L48.7606,35.8391 L48.7606,35.8391 Z" id="Fill-3"></path>
                    <path d="M58.0733,16.6324 L1.2003,16.6324 C0.4833,16.6324 -0.0797,17.2584 0.0093,17.9694 C0.5753,22.5064 1.5443,26.9164 2.8783,31.1664 L51.0263,31.1664 L58.0733,16.6324 L58.0733,16.6324 Z" id="Fill-5"></path>
                    <path d="M39.3958,55.1533 L15.5428,55.1533 C19.8988,60.6923 25.0158,65.6023 30.7318,69.7353 C31.3468,70.1793 32.2118,69.9693 32.5428,69.2873 L39.3958,55.1533 L39.3958,55.1533 Z" id="Fill-7"></path>
                    <path d="M99.9266,35.8391 L144.1716,35.8391 C142.1606,41.0221 139.5906,45.9261 136.5396,50.4811 L107.0256,50.4811 L99.9266,35.8391 L99.9266,35.8391 Z" id="Fill-9"></path>
                    <path d="M90.6139,16.6324 L147.4869,16.6324 C148.2039,16.6324 148.7669,17.2584 148.6779,17.9694 C148.1119,22.5064 147.1429,26.9164 145.8089,31.1664 L97.6609,31.1664 L90.6139,16.6324 L90.6139,16.6324 Z" id="Fill-11"></path>
                    <path d="M109.2914,55.1533 L133.1444,55.1533 C128.7884,60.6923 123.6714,65.6023 117.9554,69.7353 C117.3404,70.1793 116.4754,69.9693 116.1444,69.2873 L109.2914,55.1533 L109.2914,55.1533 Z" id="Fill-13"></path>
                    <path d="M67.3634,55.191 L74.4454,39.207 L81.5264,55.191 L67.3634,55.191 L67.3634,55.191 Z M75.4144,0.622 C75.2214,0.171 74.8334,-0.044 74.4454,0.008 C74.0564,-0.044 73.6694,0.171 73.4754,0.622 L35.4054,79.155 L56.7414,79.155 L60.9734,69.81 L87.9174,69.81 L92.1494,79.155 L113.4844,79.155 L75.4144,0.622 L75.4144,0.622 Z" id="Fill-15"></path>
                </g>
            </g>
        </g>
    </g>
</svg>